<?xml version="1.0" encoding="UTF-8" standalone="no"?>
<!DOCTYPE svg PUBLIC "-//W3C//DTD SVG 1.1//EN"
 "http://www.w3.org/Graphics/SVG/1.1/DTD/svg11.dtd">
<!-- Generated by graphviz version 2.43.0 (0)
 -->
<!-- Title: G Pages: 1 -->
<svg width="952pt" height="1239pt"
 viewBox="0.00 0.00 952.00 1239.00" xmlns="http://www.w3.org/2000/svg" xmlns:xlink="http://www.w3.org/1999/xlink">
<g id="graph0" class="graph" transform="scale(1 1) rotate(0) translate(36 1203)">
<title>G</title>
<polygon fill="#f7f7f7" stroke="transparent" points="-36,36 -36,-1203 916,-1203 916,36 -36,36"/>
<!-- appmodelsarticle -->
<g id="node1" class="node">
<title>appmodelsarticle</title>
<polygon fill="none" stroke="black" points="104.5,-453 4.5,-453 4.5,-353 104.5,-353 104.5,-453"/>
<polygon fill="#d3d3d3" stroke="transparent" points="4.5,-416 4.5,-453 104.5,-453 104.5,-416 4.5,-416"/>
<polygon fill="none" stroke="black" points="4.5,-416 4.5,-453 104.5,-453 104.5,-416 4.5,-416"/>
<text text-anchor="start" x="32" y="-430.8" font-family="Helvetica Neue" font-size="14.00" fill="#333333">Article</text>
</g>
<!-- appmodelsuser -->
<g id="node2" class="node">
<title>appmodelsuser</title>
<polygon fill="none" stroke="black" points="358,-853 258,-853 258,-753 358,-753 358,-853"/>
<polygon fill="#d3d3d3" stroke="transparent" points="258,-816 258,-853 358,-853 358,-816 258,-816"/>
<polygon fill="none" stroke="black" points="258,-816 258,-853 358,-853 358,-816 258,-816"/>
<text text-anchor="start" x="291.5" y="-830.8" font-family="Helvetica Neue" font-size="14.00" fill="#333333">User</text>
</g>
<!-- appmodelsarticle&#45;&gt;appmodelsuser -->
<g id="edge1" class="edge">
<title>appmodelsarticle:user_id&#45;&gt;appmodelsuser:id</title>
<path fill="none" stroke="#f77f00" stroke-width="1.8" d="M92.02,-461.7C101.45,-476.86 109,-489 109,-489 109,-489 181,-655 181,-655 181,-655 224.91,-706.58 260.89,-748.84"/>
<polygon fill="#f77f00" stroke="#f77f00" stroke-width="1.8" points="91.9,-461.52 90.44,-450.65 89.26,-457.27 86.62,-453.03 86.62,-453.03 86.62,-453.03 89.26,-457.27 82.8,-455.4 91.9,-461.52 91.9,-461.52"/>
<polygon fill="#f77f00" stroke="#f77f00" stroke-width="1.8" points="267.5,-748.89 259.89,-755.37 258.59,-753.85 266.2,-747.37 267.5,-748.89"/>
<polyline fill="none" stroke="#f77f00" stroke-width="1.8" points="264.34,-752.89 261.1,-749.09 "/>
<text text-anchor="middle" x="183.5" y="-662.8" font-family="Helvetica Neue" font-size="14.00"> </text>
<text text-anchor="middle" x="198.12" y="-632.58" font-family="Helvetica Neue" font-size="14.00">BelongsTo</text>
<text text-anchor="middle" x="198.12" y="-617.58" font-family="Helvetica Neue" font-size="14.00">user</text>
</g>
<!-- article_tag -->
<g id="node3" class="node">
<title>article_tag</title>
<polygon fill="none" stroke="black" points="358,-180 258,-180 258,-80 358,-80 358,-180"/>
<polygon fill="#d3d3d3" stroke="transparent" points="258,-143 258,-180 358,-180 358,-143 258,-143"/>
<polygon fill="none" stroke="black" points="258,-143 258,-180 358,-180 358,-143 258,-143"/>
<text text-anchor="start" x="291" y="-157.8" font-family="Helvetica Neue" font-size="14.00" fill="#333333">Pivot</text>
</g>
<!-- appmodelsarticle&#45;&gt;article_tag -->
<g id="edge2" class="edge">
<title>appmodelsarticle:id&#45;&gt;article_tag:article_id</title>
<path fill="none" stroke="#003049" stroke-width="1.8" d="M97.64,-352.97C134.1,-309.68 181,-254 181,-254 181,-254 216.91,-218.66 250.39,-185.71"/>
<polygon fill="#003049" stroke="#003049" stroke-width="1.8" points="253.25,-187.81 257.92,-178.3 248.34,-182.82 253.25,-187.81"/>
<text text-anchor="middle" x="183.5" y="-257.8" font-family="Helvetica Neue" font-size="14.00"> </text>
<text text-anchor="middle" x="116.68" y="-285.06" font-family="Helvetica Neue" font-size="14.00">BelongsToMany</text>
<text text-anchor="middle" x="116.68" y="-270.06" font-family="Helvetica Neue" font-size="14.00">tags</text>
</g>
<!-- likes -->
<g id="node5" class="node">
<title>likes</title>
<polygon fill="none" stroke="black" points="619,-444 519,-444 519,-344 619,-344 619,-444"/>
<polygon fill="#d3d3d3" stroke="transparent" points="519,-407 519,-444 619,-444 619,-407 519,-407"/>
<polygon fill="none" stroke="black" points="519,-407 519,-444 619,-444 619,-407 519,-407"/>
<text text-anchor="start" x="552" y="-421.8" font-family="Helvetica Neue" font-size="14.00" fill="#333333">Pivot</text>
</g>
<!-- appmodelsarticle&#45;&gt;likes -->
<g id="edge4" class="edge">
<title>appmodelsarticle:id&#45;&gt;likes:article_id</title>
<path fill="none" stroke="#003049" stroke-width="1.8" d="M104.52,-396.95C164.45,-389.55 258,-378 258,-378 258,-378 358,-378 358,-378 358,-378 446.56,-384.75 508.66,-389.48"/>
<polygon fill="#003049" stroke="#003049" stroke-width="1.8" points="508.53,-392.98 518.76,-390.25 509.06,-386 508.53,-392.98"/>
<text text-anchor="middle" x="308" y="-381.8" font-family="Helvetica Neue" font-size="14.00"> </text>
<text text-anchor="middle" x="252.23" y="-366.8" font-family="Helvetica Neue" font-size="14.00">BelongsToMany</text>
<text text-anchor="middle" x="252.23" y="-351.8" font-family="Helvetica Neue" font-size="14.00">likes</text>
</g>
<!-- appmodelsuser&#45;&gt;appmodelsarticle -->
<g id="edge9" class="edge">
<title>appmodelsuser:id&#45;&gt;appmodelsarticle:user_id</title>
<path fill="none" stroke="#fcbf49" stroke-width="1.8" d="M275.53,-752.95C229.05,-679.02 142.2,-540.9 92.66,-462.1"/>
<polygon fill="#fcbf49" stroke="#fcbf49" stroke-width="1.8" points="92.42,-461.72 90.91,-450.86 89.76,-457.49 87.1,-453.26 87.1,-453.26 87.1,-453.26 89.76,-457.49 83.29,-455.65 92.42,-461.72 92.42,-461.72"/>
<text text-anchor="middle" x="183.5" y="-606.8" font-family="Helvetica Neue" font-size="14.00"> </text>
<text text-anchor="middle" x="216.09" y="-596.32" font-family="Helvetica Neue" font-size="14.00">HasMany</text>
<text text-anchor="middle" x="216.09" y="-581.32" font-family="Helvetica Neue" font-size="14.00">articles</text>
</g>
<!-- appmodelsuser&#45;&gt;likes -->
<g id="edge10" class="edge">
<title>appmodelsuser:id&#45;&gt;likes:user_id</title>
<path fill="none" stroke="#003049" stroke-width="1.8" d="M342.43,-752.58C379.76,-696.29 435,-613 435,-613 435,-613 492.67,-518.04 532.06,-453.18"/>
<polygon fill="#003049" stroke="#003049" stroke-width="1.8" points="535.29,-454.61 537.49,-444.24 529.3,-450.97 535.29,-454.61"/>
<text text-anchor="middle" x="432.5" y="-621.8" font-family="Helvetica Neue" font-size="14.00"> </text>
<text text-anchor="middle" x="494.06" y="-593.47" font-family="Helvetica Neue" font-size="14.00">BelongsToMany</text>
<text text-anchor="middle" x="494.06" y="-578.47" font-family="Helvetica Neue" font-size="14.00">likes</text>
</g>
<!-- appmodelsteam -->
<g id="node7" class="node">
<title>appmodelsteam</title>
<polygon fill="none" stroke="black" points="880,-797 780,-797 780,-697 880,-697 880,-797"/>
<polygon fill="#d3d3d3" stroke="transparent" points="780,-760 780,-797 880,-797 880,-760 780,-760"/>
<polygon fill="none" stroke="black" points="780,-760 780,-797 880,-797 880,-760 780,-760"/>
<text text-anchor="start" x="811.5" y="-774.8" font-family="Helvetica Neue" font-size="14.00" fill="#333333">Team</text>
</g>
<!-- appmodelsuser&#45;&gt;appmodelsteam -->
<g id="edge16" class="edge">
<title>appmodelsuser:current_team_id&#45;&gt;appmodelsteam:id</title>
<path fill="none" stroke="#f77f00" stroke-width="1.8" d="M433.5,-746C433.5,-746 704.5,-747 704.5,-747"/>
<text text-anchor="middle" x="569" y="-749.8" font-family="Helvetica Neue" font-size="14.00"> </text>
<text text-anchor="middle" x="526" y="-735.3" font-family="Helvetica Neue" font-size="14.00">BelongsTo</text>
<text text-anchor="middle" x="526" y="-720.3" font-family="Helvetica Neue" font-size="14.00">currentTeam</text>
</g>
<!-- appmodelsuser&#45;&gt;appmodelsteam -->
<g id="edge17" class="edge">
<title>appmodelsuser:id&#45;&gt;appmodelsteam:user_id</title>
<path fill="none" stroke="#fcbf49" stroke-width="1.8" d="M358.12,-780.14C392.2,-764.29 431.5,-746 431.5,-746"/>
<path fill="none" stroke="#fcbf49" stroke-width="1.8" d="M433.5,-746C433.5,-746 507,-713 507,-713 507,-713 631,-713 631,-713 631,-713 704.5,-747 704.5,-747"/>
<path fill="none" stroke="#fcbf49" stroke-width="1.8" d="M706.5,-747C706.5,-747 738.5,-747 769.79,-747"/>
<polygon fill="#fcbf49" stroke="#fcbf49" stroke-width="1.8" points="769.88,-747 779.88,-751.5 774.88,-747 779.88,-747 779.88,-747 779.88,-747 774.88,-747 779.88,-742.5 769.88,-747 769.88,-747"/>
<text text-anchor="middle" x="569" y="-716.8" font-family="Helvetica Neue" font-size="14.00"> </text>
<text text-anchor="middle" x="515.38" y="-701.8" font-family="Helvetica Neue" font-size="14.00">HasMany</text>
<text text-anchor="middle" x="515.38" y="-686.8" font-family="Helvetica Neue" font-size="14.00">ownedTeams</text>
</g>
<!-- followers -->
<g id="node8" class="node">
<title>followers</title>
<polygon fill="none" stroke="black" points="619,-1146 519,-1146 519,-1046 619,-1046 619,-1146"/>
<polygon fill="#d3d3d3" stroke="transparent" points="519,-1109 519,-1146 619,-1146 619,-1109 519,-1109"/>
<polygon fill="none" stroke="black" points="519,-1109 519,-1146 619,-1146 619,-1109 519,-1109"/>
<text text-anchor="start" x="552" y="-1123.8" font-family="Helvetica Neue" font-size="14.00" fill="#333333">Pivot</text>
</g>
<!-- appmodelsuser&#45;&gt;followers -->
<g id="edge12" class="edge">
<title>appmodelsuser:id&#45;&gt;followers:following_id</title>
<path fill="none" stroke="#003049" stroke-width="1.8" d="M326.34,-853C359.79,-949.5 430,-1152 430,-1152 430,-1152 435,-1152 435,-1152 435,-1152 473.73,-1135.69 509.4,-1120.68"/>
<polygon fill="#003049" stroke="#003049" stroke-width="1.8" points="511,-1123.8 518.85,-1116.69 508.28,-1117.35 511,-1123.8"/>
<text text-anchor="middle" x="432.5" y="-1155.8" font-family="Helvetica Neue" font-size="14.00"> </text>
<text text-anchor="middle" x="338.21" y="-1031.8" font-family="Helvetica Neue" font-size="14.00">BelongsToMany</text>
<text text-anchor="middle" x="338.21" y="-1016.8" font-family="Helvetica Neue" font-size="14.00">followers</text>
</g>
<!-- appmodelsuser&#45;&gt;followers -->
<g id="edge14" class="edge">
<title>appmodelsuser:id&#45;&gt;followers:follower_id</title>
<path fill="none" stroke="#003049" stroke-width="1.8" d="M339.22,-853.2C375.06,-912.74 430,-1004 430,-1004 430,-1004 472.6,-1032.4 510.47,-1057.65"/>
<polygon fill="#003049" stroke="#003049" stroke-width="1.8" points="508.7,-1060.67 518.96,-1063.31 512.58,-1054.85 508.7,-1060.67"/>
<text text-anchor="middle" x="432.5" y="-1009.8" font-family="Helvetica Neue" font-size="14.00"> </text>
<text text-anchor="middle" x="355.55" y="-958.83" font-family="Helvetica Neue" font-size="14.00">BelongsToMany</text>
<text text-anchor="middle" x="355.55" y="-943.83" font-family="Helvetica Neue" font-size="14.00">following</text>
</g>
<!-- team_user -->
<g id="node9" class="node">
<title>team_user</title>
<polygon fill="none" stroke="black" points="623.5,-934 514.5,-934 514.5,-834 623.5,-834 623.5,-934"/>
<polygon fill="#d3d3d3" stroke="transparent" points="515,-897 515,-934 624,-934 624,-897 515,-897"/>
<polygon fill="none" stroke="black" points="515,-897 515,-934 624,-934 624,-897 515,-897"/>
<text text-anchor="start" x="526" y="-911.8" font-family="Helvetica Neue" font-size="14.00" fill="#333333">Membership</text>
</g>
<!-- appmodelsuser&#45;&gt;team_user -->
<g id="edge18" class="edge">
<title>appmodelsuser:id&#45;&gt;team_user:user_id</title>
<path fill="none" stroke="#003049" stroke-width="1.8" d="M358.02,-818.33C399.56,-831.32 459.39,-850.03 504.57,-864.16"/>
<polygon fill="#003049" stroke="#003049" stroke-width="1.8" points="503.68,-867.55 514.27,-867.2 505.77,-860.87 503.68,-867.55"/>
<text text-anchor="middle" x="432.5" y="-844.8" font-family="Helvetica Neue" font-size="14.00"> </text>
<text text-anchor="middle" x="485.3" y="-830.05" font-family="Helvetica Neue" font-size="14.00">BelongsToMany</text>
<text text-anchor="middle" x="485.3" y="-815.05" font-family="Helvetica Neue" font-size="14.00">teams</text>
</g>
<!-- article_tag&#45;&gt;appmodelsarticle -->
<g id="edge7" class="edge">
<title>article_tag:article_id&#45;&gt;appmodelsarticle:id</title>
<path fill="none" stroke="#003049" stroke-width="1.8" d="M257.92,-163.89C222.55,-188.31 181,-217 181,-217 181,-217 132.01,-289.6 95.25,-344.09"/>
<polygon fill="#003049" stroke="#003049" stroke-width="1.8" points="92.15,-342.42 89.46,-352.67 97.96,-346.33 92.15,-342.42"/>
<text text-anchor="middle" x="183.5" y="-220.8" font-family="Helvetica Neue" font-size="14.00"> </text>
<text text-anchor="middle" x="110.27" y="-230.6" font-family="Helvetica Neue" font-size="14.00">BelongsToMany</text>
<text text-anchor="middle" x="110.27" y="-215.6" font-family="Helvetica Neue" font-size="14.00">articles</text>
</g>
<!-- appmodelstag -->
<g id="node4" class="node">
<title>appmodelstag</title>
<polygon fill="none" stroke="black" points="619,-272 519,-272 519,-172 619,-172 619,-272"/>
<polygon fill="#d3d3d3" stroke="transparent" points="519,-235 519,-272 619,-272 619,-235 519,-235"/>
<polygon fill="none" stroke="black" points="519,-235 519,-272 619,-272 619,-235 519,-235"/>
<text text-anchor="start" x="557" y="-249.8" font-family="Helvetica Neue" font-size="14.00" fill="#333333">Tag</text>
</g>
<!-- article_tag&#45;&gt;appmodelstag -->
<g id="edge3" class="edge">
<title>article_tag:tag_id&#45;&gt;appmodelstag:id</title>
<path fill="none" stroke="#003049" stroke-width="1.8" d="M358.02,-147.41C401.01,-162.68 463.61,-184.92 509.27,-201.14"/>
<polygon fill="#003049" stroke="#003049" stroke-width="1.8" points="508.15,-204.45 518.74,-204.5 510.49,-197.86 508.15,-204.45"/>
<text text-anchor="middle" x="432.5" y="-176.8" font-family="Helvetica Neue" font-size="14.00"> </text>
<text text-anchor="middle" x="487.64" y="-163.08" font-family="Helvetica Neue" font-size="14.00">BelongsToMany</text>
<text text-anchor="middle" x="487.64" y="-148.08" font-family="Helvetica Neue" font-size="14.00">tags</text>
</g>
<!-- appmodelstag&#45;&gt;article_tag -->
<g id="edge6" class="edge">
<title>appmodelstag:id&#45;&gt;article_tag:tag_id</title>
<path fill="none" stroke="#003049" stroke-width="1.8" d="M518.85,-191.7C480.97,-168.34 435,-140 435,-140 435,-140 400.88,-137.29 368.15,-134.69"/>
<polygon fill="#003049" stroke="#003049" stroke-width="1.8" points="368.32,-131.2 358.08,-133.89 367.77,-138.18 368.32,-131.2"/>
<text text-anchor="middle" x="432.5" y="-143.8" font-family="Helvetica Neue" font-size="14.00"> </text>
<text text-anchor="middle" x="502.39" y="-137.05" font-family="Helvetica Neue" font-size="14.00">BelongsToMany</text>
<text text-anchor="middle" x="502.39" y="-122.05" font-family="Helvetica Neue" font-size="14.00">articles</text>
</g>
<!-- likes&#45;&gt;appmodelsarticle -->
<g id="edge11" class="edge">
<title>likes:article_id&#45;&gt;appmodelsarticle:id</title>
<path fill="none" stroke="#003049" stroke-width="1.8" d="M518.85,-410.26C480.97,-422.79 435,-438 435,-438 435,-438 186,-442 186,-442 186,-442 181,-442 181,-442 181,-442 146.95,-431.42 114.33,-421.28"/>
<polygon fill="#003049" stroke="#003049" stroke-width="1.8" points="115.33,-417.93 104.74,-418.3 113.25,-424.61 115.33,-417.93"/>
<text text-anchor="middle" x="308" y="-443.8" font-family="Helvetica Neue" font-size="14.00"> </text>
<text text-anchor="middle" x="263.25" y="-428.69" font-family="Helvetica Neue" font-size="14.00">BelongsToMany</text>
<text text-anchor="middle" x="263.25" y="-413.69" font-family="Helvetica Neue" font-size="14.00">likes</text>
</g>
<!-- likes&#45;&gt;appmodelsuser -->
<g id="edge5" class="edge">
<title>likes:user_id&#45;&gt;appmodelsuser:id</title>
<path fill="none" stroke="#003049" stroke-width="1.8" d="M533,-444.22C492.11,-502.88 430,-592 430,-592 430,-592 378.63,-681.57 342.84,-744"/>
<polygon fill="#003049" stroke="#003049" stroke-width="1.8" points="339.61,-742.58 337.68,-753 345.69,-746.06 339.61,-742.58"/>
<text text-anchor="middle" x="432.5" y="-595.8" font-family="Helvetica Neue" font-size="14.00"> </text>
<text text-anchor="middle" x="377.41" y="-578.78" font-family="Helvetica Neue" font-size="14.00">BelongsToMany</text>
<text text-anchor="middle" x="377.41" y="-563.78" font-family="Helvetica Neue" font-size="14.00">likes</text>
</g>
<!-- appmodelsteaminvitation -->
<g id="node6" class="node">
<title>appmodelsteaminvitation</title>
<polygon fill="none" stroke="black" points="631,-100 507,-100 507,0 631,0 631,-100"/>
<polygon fill="#d3d3d3" stroke="transparent" points="507,-63 507,-100 631,-100 631,-63 507,-63"/>
<polygon fill="none" stroke="black" points="507,-63 507,-100 631,-100 631,-63 507,-63"/>
<text text-anchor="start" x="518" y="-77.8" font-family="Helvetica Neue" font-size="14.00" fill="#333333">TeamInvitation</text>
</g>
<!-- appmodelsteaminvitation&#45;&gt;appmodelsteam -->
<g id="edge8" class="edge">
<title>appmodelsteaminvitation:team_id&#45;&gt;appmodelsteam:id</title>
<path fill="none" stroke="#f77f00" stroke-width="1.8" d="M611.34,-108.28C622.23,-123.63 631,-136 631,-136 631,-136 762.63,-542.2 811.24,-692.2"/>
<polygon fill="#f77f00" stroke="#f77f00" stroke-width="1.8" points="611.27,-108.18 609.15,-97.42 608.38,-104.1 605.48,-100.03 605.48,-100.03 605.48,-100.03 608.38,-104.1 601.81,-102.63 611.27,-108.18 611.27,-108.18"/>
<polygon fill="#f77f00" stroke="#f77f00" stroke-width="1.8" points="817.25,-694.51 807.73,-697.59 807.12,-695.69 816.63,-692.6 817.25,-694.51"/>
<polyline fill="none" stroke="#f77f00" stroke-width="1.8" points="812.8,-697 811.26,-692.24 "/>
<text text-anchor="middle" x="705.5" y="-371.8" font-family="Helvetica Neue" font-size="14.00"> </text>
<text text-anchor="middle" x="750.88" y="-386.74" font-family="Helvetica Neue" font-size="14.00">BelongsTo</text>
<text text-anchor="middle" x="750.88" y="-371.74" font-family="Helvetica Neue" font-size="14.00">team</text>
</g>
<!-- followers&#45;&gt;appmodelsuser -->
<g id="edge13" class="edge">
<title>followers:follower_id&#45;&gt;appmodelsuser:id</title>
<path fill="none" stroke="#003049" stroke-width="1.8" d="M518.96,-1050.51C479.29,-1013.72 430,-968 430,-968 430,-968 386.7,-908.95 351.9,-861.51"/>
<polygon fill="#003049" stroke="#003049" stroke-width="1.8" points="354.7,-859.4 345.96,-853.4 349.05,-863.54 354.7,-859.4"/>
<text text-anchor="middle" x="432.5" y="-974.8" font-family="Helvetica Neue" font-size="14.00"> </text>
<text text-anchor="middle" x="480.83" y="-967.48" font-family="Helvetica Neue" font-size="14.00">BelongsToMany</text>
<text text-anchor="middle" x="480.83" y="-952.48" font-family="Helvetica Neue" font-size="14.00">followers</text>
</g>
<!-- followers&#45;&gt;appmodelsuser -->
<g id="edge15" class="edge">
<title>followers:following_id&#45;&gt;appmodelsuser:id</title>
<path fill="none" stroke="#003049" stroke-width="1.8" d="M523.52,-1045.68C478.12,-994.32 407.75,-914.71 360.09,-860.8"/>
<polygon fill="#003049" stroke="#003049" stroke-width="1.8" points="362.47,-858.21 353.23,-853.04 357.23,-862.85 362.47,-858.21"/>
<text text-anchor="middle" x="432.5" y="-943.8" font-family="Helvetica Neue" font-size="14.00"> </text>
<text text-anchor="middle" x="495.8" y="-942.04" font-family="Helvetica Neue" font-size="14.00">BelongsToMany</text>
<text text-anchor="middle" x="495.8" y="-927.04" font-family="Helvetica Neue" font-size="14.00">following</text>
</g>
<!-- team_user&#45;&gt;appmodelsteam -->
<g id="edge19" class="edge">
<title>team_user:team_id&#45;&gt;appmodelsteam:id</title>
<path fill="none" stroke="#003049" stroke-width="1.8" d="M623.66,-855.61C666.64,-832.88 726.81,-801.05 770.91,-777.73"/>
<polygon fill="#003049" stroke="#003049" stroke-width="1.8" points="772.58,-780.8 779.78,-773.03 769.31,-774.62 772.58,-780.8"/>
<text text-anchor="middle" x="705.5" y="-814.8" font-family="Helvetica Neue" font-size="14.00"> </text>
<text text-anchor="middle" x="643.29" y="-805.47" font-family="Helvetica Neue" font-size="14.00">BelongsToMany</text>
<text text-anchor="middle" x="643.29" y="-790.47" font-family="Helvetica Neue" font-size="14.00">teams</text>
</g>
<!-- appmodelsmembership -->
<g id="node10" class="node">
<title>appmodelsmembership</title>
<polygon fill="none" stroke="black" points="109,-625 0,-625 0,-525 109,-525 109,-625"/>
<polygon fill="#d3d3d3" stroke="transparent" points="0.5,-588 0.5,-625 109.5,-625 109.5,-588 0.5,-588"/>
<polygon fill="none" stroke="black" points="0.5,-588 0.5,-625 109.5,-625 109.5,-588 0.5,-588"/>
<text text-anchor="start" x="11.5" y="-602.8" font-family="Helvetica Neue" font-size="14.00" fill="#333333">Membership</text>
</g>
</g>
</svg>
